<svg width="2" height="67" viewBox="0 0 2 67" fill="none" xmlns="http://www.w3.org/2000/svg">
<path fill-rule="evenodd" clip-rule="evenodd" d="M1 6.15942e-08C1.55228 2.75767e-08 2 0.553242 2 1L2 3C2 3.44676 1.55229 4 1 4C0.447716 4 4.27681e-07 3.44676 3.72247e-07 3L1.24082e-07 1C6.86475e-08 0.553242 0.447715 9.56117e-08 1 6.15942e-08ZM1 6C1.55229 6 2 6.55324 2 7L2 11C2 11.4468 1.55229 12 1 12C0.447717 12 1.42034e-06 11.4468 1.3649e-06 11L8.68576e-07 7C8.13141e-07 6.55324 0.447716 6 1 6ZM1 14C1.55229 14 2 14.5532 2 15L2 19C2 19.4468 1.55229 20 1 20C0.447718 20 2.413e-06 19.4468 2.35756e-06 19L1.86123e-06 15C1.8058e-06 14.5532 0.447717 14 1 14ZM1 22C1.55229 22 2 22.5532 2 23L2 27C2 27.4468 1.55229 28 1 28C0.447719 28 3.40565e-06 27.4468 3.35022e-06 27L2.85389e-06 23C2.79846e-06 22.5532 0.447718 22 1 22ZM1 31C1.55229 31 2 30.5532 2 31L2 36C2 36.4468 1.55229 36 1 36C0.44772 36 4.52239e-06 36.4468 4.46696e-06 36L3.84655e-06 31C3.79111e-06 30.5532 0.447719 31 1 31ZM1 39C1.55229 39 2 39.5532 2 40L2.00001 44C2.00001 44.4468 1.55229 45 1.00001 45C0.447721 45 5.51505e-06 44.4468 5.45962e-06 44L4.96329e-06 40C4.90785e-06 39.5532 0.44772 39 1 39ZM1.00001 47C1.55229 47 2.00001 47.5532 2.00001 48L2.00001 52C2.00001 52.4468 1.55229 53 1.00001 53C0.447722 53 6.50771e-06 52.4468 6.45228e-06 52L5.95595e-06 48C5.90051e-06 47.5532 0.447721 47 1.00001 47ZM1.00001 55C1.55229 55 2.00001 55.5532 2.00001 56L2.00001 60C2.00001 60.4468 1.55229 61 1.00001 61C0.447723 61 7.50037e-06 60.4468 7.44493e-06 60L6.9486e-06 56C6.89317e-06 55.5532 0.447722 55 1.00001 55ZM1.00001 63C1.55229 63 2.00001 63.5532 2.00001 64L2.00001 66C2.00001 66.4468 1.55229 67 1.00001 67C0.447724 67 8.24486e-06 66.4468 8.18943e-06 66L7.94126e-06 64C7.88583e-06 63.5532 0.447723 63 1.00001 63Z" fill="#C9FF66"/>
</svg>
