<svg width="710" height="595" viewBox="0 0 710 595" fill="none" xmlns="http://www.w3.org/2000/svg">
<g opacity="0.7">
<rect x="72" y="55" width="46" height="45" rx="4.55266" transform="rotate(10 72 55)" fill="#00FFFF"/>
<rect x="23" y="333" width="46" height="45" rx="4.55266" transform="rotate(10 23 333)" fill="#00FFFF"/>
<rect x="146" y="440" width="46" height="45" rx="4.55266" transform="rotate(10 146 440)" fill="#00FFFF"/>
<rect x="299" y="382" width="46" height="45" rx="4.55266" transform="rotate(10 299 382)" fill="#00FFFF"/>
<rect x="540" y="472" width="46" height="45" rx="4.55266" transform="rotate(10 540 472)" fill="#00FFFF"/>
<rect x="444" y="121" width="46" height="45" rx="4.55266" transform="rotate(10 444 121)" fill="#00FFFF"/>
<path d="M86 104L45.1927 335.43" stroke="white" stroke-width="1.3658"/>
<path d="M112 85.999L320.479 385.602" stroke="white" stroke-width="1.3658"/>
<path d="M458 170L320.575 384.801" stroke="white" stroke-width="1.3658"/>
<path d="M490 152.999L755.436 135.68" stroke="white" stroke-width="1.3658"/>
<path d="M458 170L561.543 473.842" stroke="white" stroke-width="1.3658"/>
<path d="M773 168.999L563.349 473.87" stroke="white" stroke-width="1.3658"/>
<path d="M581 502L719.734 564.104" stroke="white" stroke-width="1.3658"/>
<path d="M536 494L338.091 412.587" stroke="white" stroke-width="1.3658"/>
<path d="M536 494L185.831 469.856" stroke="white" stroke-width="1.3658"/>
<path d="M62 362.999L293.43 403.806" stroke="white" stroke-width="1.3658"/>
<path d="M62 362.999L141.192 461.002" stroke="white" stroke-width="1.3658"/>
<path d="M112 85.999L440.926 143.998" stroke="white" stroke-width="1.3658"/>
</g>
</svg>
