<svg width="657" height="872" viewBox="0 0 657 872" fill="none" xmlns="http://www.w3.org/2000/svg">
<g opacity="0.7">
<rect x="73" y="39" width="45" height="45" rx="4.53094" transform="rotate(45 73 39)" fill="#00FFFF"/>
<rect x="73.0001" y="435" width="45" height="45" rx="4.53094" transform="rotate(45 73.0001 435)" fill="#00FFFF"/>
<rect x="598" y="486" width="45" height="45" rx="4.53094" transform="rotate(45 598 486)" fill="#00FFFF"/>
<rect x="221" y="646" width="45" height="45" rx="4.53094" transform="rotate(45 221 646)" fill="#00FFFF"/>
<rect x="330" y="808" width="45" height="45" rx="4.53094" transform="rotate(45 330 808)" fill="#00FFFF"/>
<rect x="341" y="306" width="45" height="45" rx="4.53094" transform="rotate(45 341 306)" fill="#00FFFF"/>
<path d="M57 87L-108.463 252.463" stroke="white" stroke-width="1.35928"/>
<path d="M89 87L88.9285 451" stroke="white" stroke-width="1.35928"/>
<path d="M325 354L89.9602 450.293" stroke="white" stroke-width="1.35928"/>
<path d="M361 359L587.338 496.827" stroke="white" stroke-width="1.35928"/>
<path d="M325 354L236.53 661.527" stroke="white" stroke-width="1.35928"/>
<path d="M582 534L237.005 662.072" stroke="white" stroke-width="1.35928"/>
<path d="M582 534L346.837 823.53" stroke="white" stroke-width="1.35928"/>
<path d="M237 694L314.677 823.489" stroke="white" stroke-width="1.35928"/>
<path d="M205 662L89.9143 482.768" stroke="white" stroke-width="1.35928"/>
<path d="M205 662L-67.0895 441.847" stroke="white" stroke-width="1.35928"/>
<path d="M-109 285L57.1701 451.17" stroke="white" stroke-width="1.35928"/>
<path d="M89 87L324.467 322.467" stroke="white" stroke-width="1.35928"/>
</g>
</svg>
